<svg class="svg-colour" width="120" height="120" fill="#582900" viewBox="0 0 120 120" xmlns="http://www.w3.org/2000/svg">
<path fill-rule="evenodd" clip-rule="evenodd" d="M59.5 62C61.9853 62 64 59.9853 64 57.5C64 55.0147 61.9853 53 59.5 53C57.0147 53 55 55.0147 55 57.5C55 59.9853 57.0147 62 59.5 62ZM59.5 66C64.1944 66 68 62.1944 68 57.5C68 52.8056 64.1944 49 59.5 49C54.8056 49 51 52.8056 51 57.5C51 62.1944 54.8056 66 59.5 66Z"/>
<path fill-rule="evenodd" clip-rule="evenodd" d="M57.4421 46.6605C57.1615 46.9797 57 47.4681 57 48.0358L57 48.0369C57 48.0909 56.9999 48.2606 57.3871 48.5055C57.8077 48.7716 58.5378 49 59.5 49C60.4622 49 61.1923 48.7716 61.6129 48.5055C62.0001 48.2606 62 48.0909 62 48.0369V48.0358C62 47.4681 61.8385 46.9797 61.5579 46.6605C61.3233 46.3936 60.7941 46 59.5 46C58.2059 46 57.6767 46.3936 57.4421 46.6605ZM54.4379 44.0195C55.58 42.7204 57.3007 42 59.5 42C61.6993 42 63.42 42.7204 64.5621 44.0195C65.6581 45.2662 66 46.7958 66 48.0358C66 49.7907 64.99 51.1025 63.7511 51.8861C62.543 52.6502 61.0231 53 59.5 53C57.9769 53 56.457 52.6502 55.2489 51.8861C54.01 51.1025 53 49.7907 53 48.0358C53 46.7958 53.3419 45.2662 54.4379 44.0195Z"/>
<path fill-rule="evenodd" clip-rule="evenodd" d="M60.7002 66H58.3636C57.0366 66 56.1647 66.9552 56.1103 67.9328C55.7814 73.8355 56.2063 78.7263 57.142 82.4599C57.7808 85.0089 58.6137 86.8509 59.4767 88.1141C60.2567 86.8118 61.0253 84.9847 61.6473 82.5304C62.5792 78.853 63.1152 74.0232 62.979 68.0351C62.9556 67.0057 62.0589 66 60.7002 66ZM58.3636 62C55.09 62 52.2985 64.4418 52.1164 67.7103C51.4269 80.0887 53.8454 88.9534 58.1625 92.6214C58.4641 92.8777 58.8533 93 59.249 93H59.935C60.3912 93 60.8351 92.8375 61.1515 92.5088C64.7602 88.7599 67.2626 80.4571 66.978 67.9441C66.9014 64.579 64.0662 62 60.7002 62H58.3636Z"/>
<path fill-rule="evenodd" clip-rule="evenodd" d="M54 72C54 70.8954 54.8954 70 56 70H64C65.1046 70 66 70.8954 66 72C66 73.1046 65.1046 74 64 74H56C54.8954 74 54 73.1046 54 72ZM54 80C54 78.8954 54.8954 78 56 78H63.5294C64.634 78 65.5294 78.8954 65.5294 80C65.5294 81.1046 64.634 82 63.5294 82H56C54.8954 82 54 81.1046 54 80Z"/>
<path fill-rule="evenodd" clip-rule="evenodd" d="M28.2954 67.6303C27.3902 65.4945 28.4125 62.9229 30.7228 61.9437C30.9796 61.8349 31.2389 61.7516 31.4982 61.692L53.6246 57.6774L52.9105 53.7416L30.7046 57.7707L30.6668 57.7791C30.1591 57.8916 29.6555 58.0517 29.1619 58.2609C24.9085 60.0636 22.8072 64.9317 24.6125 69.1912C26.4178 73.4507 31.3773 75.3262 35.6307 73.5234C36.1102 73.3202 36.5631 73.0778 36.9864 72.8014L55.7604 61.4965L53.6969 58.0698L34.854 69.4163L34.8193 69.4392C34.5879 69.592 34.3379 69.7269 34.0698 69.8405C31.7595 70.8197 29.2006 69.7661 28.2954 67.6303Z"/>
<path fill-rule="evenodd" clip-rule="evenodd" d="M90.8556 67.6303C91.7608 65.4945 90.7384 62.9229 88.4281 61.9437C88.1713 61.8349 87.912 61.7516 87.6528 61.692L65.5264 57.6774L66.2405 53.7416L88.4464 57.7707L88.4841 57.7791C88.9919 57.8916 89.4955 58.0517 89.9891 58.2609C94.2425 60.0636 96.3438 64.9317 94.5385 69.1912C92.7331 73.4507 87.7737 75.3262 83.5202 73.5234C83.0407 73.3202 82.5879 73.0778 82.1646 72.8014L63.3906 61.4965L65.454 58.0698L84.297 69.4163L84.3317 69.4392C84.563 69.592 84.8131 69.7269 85.0812 69.8405C87.3915 70.8197 89.9504 69.7661 90.8556 67.6303Z"/>
<path fill-rule="evenodd" clip-rule="evenodd" d="M104.096 31.0773L63 7.35084C61.1436 6.27905 58.8564 6.27905 57 7.35084L15.9045 31.0773C14.0481 32.1491 12.9045 34.1299 12.9045 36.2735V83.7265C12.9045 85.8701 14.0481 87.8508 15.9045 88.9226L57 112.649C58.8564 113.721 61.1436 113.721 63 112.649L104.096 88.9226C105.952 87.8508 107.096 85.8701 107.096 83.7265V36.2735C107.096 34.1299 105.952 32.1491 104.096 31.0773ZM65 3.88674C61.906 2.10041 58.094 2.10042 55 3.88674L13.9045 27.6132C10.8105 29.3996 8.90451 32.7008 8.90451 36.2735V83.7265C8.90451 87.2991 10.8105 90.6004 13.9045 92.3867L55 116.113C58.094 117.9 61.906 117.9 65 116.113L106.096 92.3867C109.19 90.6004 111.096 87.2991 111.096 83.7265V36.2735C111.096 32.7008 109.19 29.3996 106.096 27.6132L65 3.88674Z"/>
<path fill-rule="evenodd" clip-rule="evenodd" d="M78.459 36.5296C79.2847 37.2633 79.3593 38.5274 78.6256 39.3531L75.783 42.5524C75.0493 43.3781 73.7852 43.4528 72.9595 42.7191C72.1338 41.9854 72.0592 40.7213 72.7928 39.8956L75.6354 36.6963C76.3691 35.8706 77.6332 35.796 78.459 36.5296Z"/>
<path fill-rule="evenodd" clip-rule="evenodd" d="M40.5411 36.5296C39.7154 37.2633 39.6407 38.5274 40.3744 39.3531L43.217 42.5524C43.9507 43.3781 45.2148 43.4528 46.0405 42.7191C46.8662 41.9854 46.9409 40.7213 46.2072 39.8956L43.3646 36.6963C42.6309 35.8706 41.3668 35.796 40.5411 36.5296Z"/>
<path fill-rule="evenodd" clip-rule="evenodd" d="M59.5 26C60.6046 26 61.5 26.8954 61.5 28V35.7282C61.5 36.8327 60.6046 37.7282 59.5 37.7282C58.3954 37.7282 57.5 36.8327 57.5 35.7282V28C57.5 26.8954 58.3954 26 59.5 26Z"/>
<path fill-rule="evenodd" clip-rule="evenodd" d="M48.2176 30.8059C47.2264 31.2933 46.8181 32.492 47.3056 33.4832L49.4093 37.7609C49.8968 38.7521 51.0955 39.1604 52.0867 38.6729C53.0779 38.1855 53.4862 36.9868 52.9987 35.9956L50.895 31.7179C50.4075 30.7267 49.2088 30.3184 48.2176 30.8059Z"/>
<path fill-rule="evenodd" clip-rule="evenodd" d="M70.7824 30.8059C71.7736 31.2933 72.1819 32.492 71.6945 33.4832L69.5907 37.7609C69.1032 38.7521 67.9045 39.1604 66.9134 38.6729C65.9222 38.1855 65.5138 36.9868 66.0013 35.9956L68.1051 31.7179C68.5925 30.7267 69.7912 30.3184 70.7824 30.8059Z"/>
<path fill-rule="evenodd" clip-rule="evenodd" d="M59.4999 37.8722C53.9424 37.8722 49.1147 39.8153 46.0855 42.6778C45.2827 43.4365 44.0168 43.4007 43.2582 42.5979C42.4995 41.795 42.5353 40.5292 43.3382 39.7706C47.2085 36.1132 53.0647 33.8722 59.4999 33.8722C65.9347 33.8722 71.7906 36.1129 75.6609 39.7698C76.4637 40.5284 76.4996 41.7942 75.741 42.5971C74.9824 43.4 73.7166 43.4359 72.9137 42.6773C69.8845 39.815 65.0571 37.8722 59.4999 37.8722Z"/>
</svg>
