<svg width="120" height="120" viewBox="0 0 120 120" fill="#582900" xmlns="http://www.w3.org/2000/svg">
<path fill-rule="evenodd" clip-rule="evenodd" d="M101.89 99.3035L95.682 105.512C93.9246 107.269 91.0754 107.269 89.318 105.512L83.1795 99.3733C79.5386 95.7324 80.4219 89.6139 84.9439 87.1514L85.1713 87.0275C87.6028 85.7034 90.4111 85.8749 92.5948 87.1801C94.8672 85.8743 97.7618 85.7649 100.208 87.1475C104.598 89.6278 105.523 95.671 101.89 99.3035ZM95.4569 90.287C95.4484 90.2894 95.4398 90.2917 95.4312 90.2942C94.6269 90.5215 93.9021 91.02 93.4105 91.7429C93.2973 91.9094 93.1964 92.0878 93.1098 92.2776L93.0821 92.3382C92.8633 92.8174 92.1768 92.8003 91.9821 92.3108C91.8938 92.0886 91.7855 91.881 91.6602 91.6891C91.6367 91.6532 91.6127 91.6178 91.588 91.5829C91.1167 90.9163 90.4344 90.4532 89.6781 90.243C89.671 90.2411 89.6638 90.2391 89.6567 90.2372C88.8264 90.0121 87.9088 90.0915 87.0843 90.5404L86.8569 90.6643C84.6811 91.8491 84.2561 94.793 86.008 96.5449L92.1464 102.683C92.3417 102.879 92.6583 102.879 92.8536 102.683L99.0618 96.4751C100.79 94.7469 100.368 91.8323 98.2405 90.6299C97.3584 90.1315 96.3589 90.0391 95.4569 90.287Z"/>
<path fill-rule="evenodd" clip-rule="evenodd" d="M59.9853 55.4191C63.6873 55.4191 66.6884 52.418 66.6884 48.716C66.6884 45.0139 63.6873 42.0128 59.9853 42.0128C56.2832 42.0128 53.2821 45.0139 53.2821 48.716C53.2821 52.418 56.2832 55.4191 59.9853 55.4191ZM59.9853 59.4191C65.8965 59.4191 70.6884 54.6272 70.6884 48.716C70.6884 42.8048 65.8965 38.0128 59.9853 38.0128C54.0741 38.0128 49.2821 42.8048 49.2821 48.716C49.2821 54.6272 54.0741 59.4191 59.9853 59.4191Z"/>
<path fill-rule="evenodd" clip-rule="evenodd" d="M59.6999 38.0368C57.7872 38.0278 56.244 37.4395 56.244 36.5238C56.244 35.631 56.9769 34.5373 59.4852 34.4672C59.5695 34.4648 59.6557 34.4636 59.744 34.4636C59.8323 34.4636 59.9186 34.4648 60.0028 34.4672C62.5111 34.5373 63.244 35.631 63.244 36.5238C63.244 37.4395 61.7008 38.0278 59.7882 38.0368C59.7735 38.0368 59.7588 38.0369 59.744 38.0369C59.7293 38.0369 59.7146 38.0368 59.6999 38.0368ZM63.7525 41.3207C62.4867 41.8462 61.0511 42.0369 59.744 42.0369C58.437 42.0369 57.0014 41.8462 55.7356 41.3207C54.7731 40.9212 52.244 39.5701 52.244 36.5238C52.244 34.8548 52.9925 33.1291 54.5822 31.9424C56.0576 30.8409 57.8965 30.4636 59.744 30.4636C61.5916 30.4636 63.4304 30.8409 64.9059 31.9424C66.4955 33.1291 67.244 34.8548 67.244 36.5238C67.244 39.5701 64.7149 40.9212 63.7525 41.3207Z"/>
<path fill-rule="evenodd" clip-rule="evenodd" d="M60.6236 59.9608H59.0773C56.2713 59.9608 54.0929 62.0603 53.9631 64.6013C53.4639 74.3719 54.0047 82.6171 55.3139 89.0452C56.4406 94.5766 58.0721 98.4467 59.8313 100.835C61.3937 98.3473 62.8928 94.5151 64.0004 89.1483C65.302 82.8414 66.0032 74.7073 65.7689 64.7778C65.707 62.1554 63.4903 59.9608 60.6236 59.9608ZM59.0773 55.9608C54.2736 55.9608 50.2134 59.5997 49.9683 64.3972C48.9456 84.4138 52.144 98.7817 57.918 104.764C58.371 105.233 59.0075 105.463 59.6598 105.463H60.1601C60.9023 105.463 61.6174 105.165 62.0784 104.583C66.9186 98.4747 70.247 84.9876 69.7677 64.6835C69.6517 59.7685 65.5399 55.9608 60.6236 55.9608H59.0773Z"/>
<path fill-rule="evenodd" clip-rule="evenodd" d="M50.3914 66.1604C50.3914 65.0558 51.2868 64.1604 52.3914 64.1604H67.2527C68.3573 64.1604 69.2527 65.0558 69.2527 66.1604C69.2527 67.265 68.3573 68.1604 67.2527 68.1604H52.3914C51.2868 68.1604 50.3914 67.265 50.3914 66.1604ZM50.3914 74.2777C50.3914 73.1731 51.2868 72.2777 52.3914 72.2777H67.2527C68.3573 72.2777 69.2527 73.1731 69.2527 74.2777C69.2527 75.3822 68.3573 76.2777 67.2527 76.2777H52.3914C51.2868 76.2777 50.3914 75.3822 50.3914 74.2777ZM66.4705 84.6957L53.1735 84.6957C52.069 84.6957 51.1735 83.8002 51.1735 82.6957C51.1735 81.5911 52.069 80.6957 53.1735 80.6957L66.4705 80.6957C67.5751 80.6957 68.4705 81.5911 68.4705 82.6957C68.4705 83.8002 67.5751 84.6957 66.4705 84.6957ZM52.6336 91.19C52.6336 90.0854 53.5291 89.19 54.6336 89.19H64.9046C66.0091 89.19 66.9046 90.0854 66.9046 91.19C66.9046 92.2946 66.0091 93.19 64.9046 93.19H54.6336C53.5291 93.19 52.6336 92.2946 52.6336 91.19Z"/>
<path fill-rule="evenodd" clip-rule="evenodd" d="M78.703 23.0665C79.5287 23.8002 79.6033 25.0643 78.8696 25.89L76.027 29.0893C75.2934 29.915 74.0292 29.9896 73.2035 29.256C72.3778 28.5223 72.3032 27.2582 73.0368 26.4324L75.8795 23.2332C76.6131 22.4075 77.8773 22.3328 78.703 23.0665Z"/>
<path fill-rule="evenodd" clip-rule="evenodd" d="M40.7851 23.0665C39.9594 23.8002 39.8847 25.0643 40.6184 25.89L43.461 29.0893C44.1947 29.915 45.4588 29.9896 46.2845 29.256C47.1103 28.5223 47.1849 27.2582 46.4512 26.4324L43.6086 23.2332C42.8749 22.4075 41.6108 22.3328 40.7851 23.0665Z"/>
<path fill-rule="evenodd" clip-rule="evenodd" d="M59.744 12.5369C60.8486 12.5369 61.744 13.4323 61.744 14.5369V22.265C61.744 23.3696 60.8486 24.265 59.744 24.265C58.6394 24.265 57.744 23.3696 57.744 22.265V14.5369C57.744 13.4323 58.6394 12.5369 59.744 12.5369Z"/>
<path fill-rule="evenodd" clip-rule="evenodd" d="M48.4616 17.3427C47.4704 17.8302 47.0621 19.0289 47.5496 20.0201L49.6533 24.2977C50.1408 25.2889 51.3395 25.6973 52.3307 25.2098C53.3219 24.7223 53.7302 23.5237 53.2427 22.5325L51.139 18.2548C50.6515 17.2636 49.4528 16.8553 48.4616 17.3427Z"/>
<path fill-rule="evenodd" clip-rule="evenodd" d="M71.0264 17.3427C72.0176 17.8302 72.4259 19.0289 71.9384 20.0201L69.8347 24.2977C69.3472 25.2889 68.1485 25.6973 67.1573 25.2098C66.1662 24.7223 65.7578 23.5237 66.2453 22.5325L68.349 18.2548C68.8365 17.2636 70.0352 16.8553 71.0264 17.3427Z"/>
<path fill-rule="evenodd" clip-rule="evenodd" d="M59.7439 24.4091C54.1864 24.4091 49.3587 26.3522 46.3295 29.2147C45.5267 29.9734 44.2609 29.9375 43.5022 29.1347C42.7436 28.3319 42.7794 27.0661 43.5822 26.3074C47.4525 22.6501 53.3087 20.4091 59.7439 20.4091C66.1787 20.4091 72.0346 22.6498 75.9049 26.3067C76.7078 27.0653 76.7437 28.3311 75.9851 29.134C75.2265 29.9368 73.9606 29.9727 73.1578 29.2141C70.1285 26.3519 65.3011 24.4091 59.7439 24.4091Z"/>
<path fill-rule="evenodd" clip-rule="evenodd" d="M13.9512 64.606C12.4417 61.0444 14.1605 56.8142 17.9341 55.2148C18.3604 55.0341 18.792 54.896 19.2243 54.798L51.2364 48.9897L50.5223 45.0539L18.4319 50.8765L18.3942 50.8848C17.7129 51.0358 17.0366 51.2507 16.3732 51.5319C10.6564 53.9549 7.85872 60.4816 10.2683 66.1669C12.678 71.8522 19.3136 74.3807 25.0304 71.9577C25.6799 71.6824 26.2925 71.354 26.8644 70.9795L54.0237 54.6251L51.9603 51.1984L24.7313 67.5947L24.6965 67.6177C24.3169 67.8684 23.9074 68.0893 23.4695 68.2749C19.6958 69.8743 15.4607 68.1676 13.9512 64.606Z"/>
<path fill-rule="evenodd" clip-rule="evenodd" d="M106.049 64.606C107.558 61.0444 105.84 56.8142 102.066 55.2148C101.64 55.0341 101.208 54.896 100.776 54.798L68.7636 48.9897L69.4777 45.0539L101.568 50.8765L101.606 50.8848C102.287 51.0358 102.963 51.2507 103.627 51.5319C109.344 53.9549 112.141 60.4816 109.732 66.1669C107.322 71.8522 100.686 74.3807 94.9696 71.9577C94.32 71.6824 93.7075 71.354 93.1356 70.9795L65.9763 54.6251L68.0397 51.1984L95.2687 67.5947L95.3034 67.6177C95.6831 67.8684 96.0926 68.0893 96.5305 68.2749C100.304 69.8743 104.539 68.1676 106.049 64.606Z"/>
</svg>
