<svg width="120" height="120" viewBox="0 0 120 120" fill="#582900" xmlns="http://www.w3.org/2000/svg">
<path d="M83.1876 81.8076C83.9686 81.0266 85.235 81.0266 86.016 81.8076L101.572 97.364C102.353 98.145 102.353 99.4114 101.572 100.192C100.791 100.973 99.525 100.973 98.7439 100.192L83.1876 84.6361C82.4065 83.855 82.4065 82.5887 83.1876 81.8076Z"/>
<path fill-rule="evenodd" clip-rule="evenodd" d="M87.4303 86.0502C88.2113 85.2692 89.4776 85.2692 90.2587 86.0502L97.3298 93.1212C98.1109 93.9023 98.1109 95.1686 97.3298 95.9497L87.3662 105.913C86.7261 106.553 85.7357 106.684 84.9517 106.231L83.5916 105.445L81.7734 107.263C80.9923 108.044 79.726 108.044 78.945 107.263L76.1165 104.435C75.3355 103.654 75.3355 102.388 76.1165 101.607L77.9347 99.7884L77.1491 98.4283C76.6963 97.6443 76.8266 96.6539 77.4668 96.0137L87.4303 86.0502ZM81.3805 97.7568L88.8445 90.2929L93.0872 94.5355L85.6232 101.999L82.9339 100.446L81.3805 97.7568Z"/>
<path d="M76.8236 103.728C77.6047 102.947 78.871 102.947 79.652 103.728C80.4331 104.509 80.4331 105.775 79.652 106.556L71.8739 114.335C71.0928 115.116 69.8265 115.116 69.0454 114.335C68.2644 113.553 68.2644 112.287 69.0454 111.506L76.8236 103.728Z"/>
<path d="M94.5012 70.4939C95.2823 69.7128 96.5486 69.7128 97.3297 70.4939L112.886 86.0502C113.667 86.8313 113.667 88.0976 112.886 88.8786C112.105 89.6597 110.839 89.6597 110.058 88.8786L94.5012 73.3223C93.7202 72.5412 93.7202 71.2749 94.5012 70.4939Z"/>
<path fill-rule="evenodd" clip-rule="evenodd" d="M100.158 78.9791L95.9154 83.2218L100.158 87.4644L104.401 83.2218L100.158 78.9791ZM101.572 74.7365C100.791 73.9555 99.5249 73.9555 98.7439 74.7365L91.6728 81.8076C90.8918 82.5886 90.8918 83.855 91.6728 84.636L98.7439 91.7071C99.5249 92.4881 100.791 92.4881 101.572 91.7071L108.643 84.636C109.424 83.855 109.424 82.5886 108.643 81.8076L101.572 74.7365Z"/>
<path fill-rule="evenodd" clip-rule="evenodd" d="M57.9518 46.1294C61.6539 46.1294 64.655 43.1282 64.655 39.4262C64.655 35.7241 61.6539 32.723 57.9518 32.723C54.2498 32.723 51.2487 35.7241 51.2487 39.4262C51.2487 43.1282 54.2498 46.1294 57.9518 46.1294ZM57.9518 50.1294C63.863 50.1294 68.655 45.3374 68.655 39.4262C68.655 33.515 63.863 28.723 57.9518 28.723C52.0406 28.723 47.2487 33.515 47.2487 39.4262C47.2487 45.3374 52.0406 50.1294 57.9518 50.1294Z"/>
<path fill-rule="evenodd" clip-rule="evenodd" d="M57.695 28.747C55.7823 28.738 54.2391 28.1497 54.2391 27.234C54.2391 26.3412 54.972 25.2475 57.4803 25.1774C57.5646 25.175 57.6508 25.1738 57.7391 25.1738C57.8274 25.1738 57.9137 25.175 57.9979 25.1774C60.5062 25.2475 61.2391 26.3412 61.2391 27.234C61.2391 28.1497 59.6959 28.738 57.7833 28.747C57.7686 28.747 57.7539 28.7471 57.7391 28.7471C57.7244 28.7471 57.7097 28.747 57.695 28.747ZM61.7476 32.0309C60.4818 32.5564 59.0462 32.7471 57.7391 32.7471C56.4321 32.7471 54.9965 32.5564 53.7307 32.0309C52.7682 31.6314 50.2391 30.2803 50.2391 27.234C50.2391 25.565 50.9876 23.8393 52.5773 22.6526C54.0527 21.5511 55.8916 21.1738 57.7391 21.1738C59.5867 21.1738 61.4255 21.5511 62.901 22.6526C64.4906 23.8393 65.2391 25.565 65.2391 27.234C65.2391 30.2803 62.71 31.6314 61.7476 32.0309Z"/>
<path fill-rule="evenodd" clip-rule="evenodd" d="M58.5902 50.671H57.0439C54.2379 50.671 52.0594 52.7705 51.9296 55.3115C51.4304 65.0821 51.9713 73.3273 53.2805 79.7554C54.4071 85.2868 56.0386 89.1569 57.7978 91.5449C59.3602 89.0575 60.8594 85.2253 61.9669 79.8585C63.2685 73.5516 63.9698 65.4176 63.7354 55.488C63.6735 52.8656 61.4569 50.671 58.5902 50.671ZM57.0439 46.671C52.2401 46.671 48.1799 50.3099 47.9348 55.1074C46.9122 75.124 50.1106 89.4919 55.8846 95.4742C56.3376 95.9435 56.974 96.1732 57.6263 96.1732H58.1266C58.8689 96.1732 59.584 95.8753 60.0449 95.2935C64.8851 89.1849 68.2135 75.6978 67.7343 55.3937C67.6183 50.4788 63.5065 46.671 58.5902 46.671H57.0439Z"/>
<path fill-rule="evenodd" clip-rule="evenodd" d="M48.3579 56.8706C48.3579 55.766 49.2533 54.8706 50.3579 54.8706H65.2192C66.3238 54.8706 67.2192 55.766 67.2192 56.8706C67.2192 57.9752 66.3238 58.8706 65.2192 58.8706H50.3579C49.2533 58.8706 48.3579 57.9752 48.3579 56.8706ZM48.3579 64.9879C48.3579 63.8833 49.2533 62.9879 50.3579 62.9879H65.2192C66.3238 62.9879 67.2192 63.8833 67.2192 64.9879C67.2192 66.0924 66.3238 66.9879 65.2192 66.9879H50.3579C49.2533 66.9879 48.3579 66.0924 48.3579 64.9879ZM64.4371 75.4059L51.1401 75.4059C50.0355 75.4059 49.1401 74.5104 49.1401 73.4059C49.1401 72.3013 50.0355 71.4059 51.1401 71.4059L64.4371 71.4059C65.5416 71.4059 66.4371 72.3013 66.4371 73.4059C66.4371 74.5104 65.5416 75.4059 64.4371 75.4059ZM50.6002 81.9002C50.6002 80.7957 51.4956 79.9002 52.6002 79.9002H62.8711C63.9757 79.9002 64.8711 80.7957 64.8711 81.9002C64.8711 83.0048 63.9757 83.9002 62.8711 83.9002H52.6002C51.4956 83.9002 50.6002 83.0048 50.6002 81.9002Z"/>
<path fill-rule="evenodd" clip-rule="evenodd" d="M76.9108 13.6093C77.7365 14.343 77.8111 15.6071 77.0774 16.4329L74.2348 19.6321C73.5012 20.4578 72.237 20.5325 71.4113 19.7988C70.5856 19.0651 70.511 17.801 71.2446 16.9753L74.0873 13.776C74.8209 12.9503 76.0851 12.8757 76.9108 13.6093Z"/>
<path fill-rule="evenodd" clip-rule="evenodd" d="M38.9929 13.6093C38.1672 14.343 38.0926 15.6071 38.8262 16.4329L41.6688 19.6321C42.4025 20.4578 43.6666 20.5325 44.4923 19.7988C45.3181 19.0651 45.3927 17.801 44.659 16.9753L41.8164 13.776C41.0827 12.9503 39.8186 12.8757 38.9929 13.6093Z"/>
<path fill-rule="evenodd" clip-rule="evenodd" d="M57.9518 3.07971C59.0564 3.07971 59.9518 3.97514 59.9518 5.07971V12.8079C59.9518 13.9125 59.0564 14.8079 57.9518 14.8079C56.8473 14.8079 55.9518 13.9125 55.9518 12.8079V5.07971C55.9518 3.97514 56.8473 3.07971 57.9518 3.07971Z"/>
<path fill-rule="evenodd" clip-rule="evenodd" d="M46.6694 7.88558C45.6783 8.37305 45.2699 9.57173 45.7574 10.5629L47.8612 14.8406C48.3486 15.8318 49.5473 16.2401 50.5385 15.7527C51.5297 15.2652 51.938 14.0665 51.4506 13.0753L49.3468 8.79764C48.8593 7.80646 47.6606 7.39811 46.6694 7.88558Z"/>
<path fill-rule="evenodd" clip-rule="evenodd" d="M69.2342 7.88558C70.2254 8.37305 70.6337 9.57173 70.1463 10.5629L68.0425 14.8406C67.555 15.8318 66.3564 16.2401 65.3652 15.7527C64.374 15.2652 63.9656 14.0665 64.4531 13.0753L66.5569 8.79764C67.0443 7.80646 68.243 7.39811 69.2342 7.88558Z"/>
<path fill-rule="evenodd" clip-rule="evenodd" d="M57.9517 14.9519C52.3942 14.9519 47.5665 16.895 44.5373 19.7575C43.7345 20.5162 42.4687 20.4804 41.71 19.6776C40.9514 18.8747 40.9872 17.6089 41.79 16.8503C45.6603 13.1929 51.5165 10.9519 57.9517 10.9519C64.3865 10.9519 70.2424 13.1926 74.1127 16.8495C74.9156 17.6081 74.9515 18.8739 74.1929 19.6768C73.4343 20.4797 72.1684 20.5156 71.3656 19.757C68.3363 16.8948 63.5089 14.9519 57.9517 14.9519Z"/>
<path fill-rule="evenodd" clip-rule="evenodd" d="M11.9178 55.316C10.4082 51.7544 12.127 47.5243 15.9007 45.9248C16.3269 45.7442 16.7585 45.6061 17.1908 45.5081L49.203 39.6998L48.4888 35.764L16.3984 41.5866L16.3607 41.5949C15.6795 41.7459 15.0031 41.9608 14.3398 42.242C8.62295 44.665 5.82527 51.1917 8.2349 56.877C10.6445 62.5623 17.2802 65.0908 22.997 62.6678C23.6465 62.3925 24.259 62.0641 24.8309 61.6896L51.9902 45.3352L49.9268 41.9085L22.6978 58.3048L22.6631 58.3277C22.2835 58.5784 21.8739 58.7993 21.436 58.9849C17.6623 60.5844 13.4273 58.8776 11.9178 55.316Z"/>
<path fill-rule="evenodd" clip-rule="evenodd" d="M104.015 55.316C105.525 51.7544 103.806 47.5243 100.032 45.9248C99.6061 45.7442 99.1746 45.6061 98.7423 45.5081L66.7301 39.6998L67.4442 35.764L99.5347 41.5866L99.5724 41.5949C100.254 41.7459 100.93 41.9608 101.593 42.242C107.31 44.665 110.108 51.1917 107.698 56.877C105.289 62.5623 98.6529 65.0908 92.9361 62.6678C92.2866 62.3925 91.6741 62.0641 91.1022 61.6896L63.9428 45.3352L66.0063 41.9085L93.2352 58.3048L93.27 58.3277C93.6496 58.5784 94.0591 58.7993 94.4971 58.9849C98.2707 60.5844 102.506 58.8776 104.015 55.316Z"/>
</svg>
