<svg width="120" height="120" viewBox="0 0 120 120" fill="#582900" xmlns="http://www.w3.org/2000/svg">
<path fill-rule="evenodd" clip-rule="evenodd" d="M82.5703 87.5908C83.6046 87.2029 84.7574 87.7269 85.1452 88.7612L89.2726 99.7674L93.3999 88.7612C93.7878 87.7269 94.9406 87.2029 95.9748 87.5908C97.0091 87.9786 97.5331 89.1314 97.1452 90.1657L92.0816 103.669C91.1082 106.264 87.4369 106.264 86.4636 103.669L81.3999 90.1657C81.0121 89.1314 81.5361 87.9786 82.5703 87.5908Z"/>
<path fill-rule="evenodd" clip-rule="evenodd" d="M59.9853 55.4189C63.6873 55.4189 66.6884 52.4178 66.6884 48.7157C66.6884 45.0137 63.6873 42.0126 59.9853 42.0126C56.2832 42.0126 53.2821 45.0137 53.2821 48.7157C53.2821 52.4178 56.2832 55.4189 59.9853 55.4189ZM59.9853 59.4189C65.8965 59.4189 70.6884 54.6269 70.6884 48.7157C70.6884 42.8045 65.8965 38.0126 59.9853 38.0126C54.0741 38.0126 49.2821 42.8045 49.2821 48.7157C49.2821 54.6269 54.0741 59.4189 59.9853 59.4189Z"/>
<path fill-rule="evenodd" clip-rule="evenodd" d="M59.6999 38.0365C57.7872 38.0276 56.244 37.4393 56.244 36.5235C56.244 35.6307 56.9769 34.5371 59.4852 34.4669C59.5695 34.4646 59.6557 34.4634 59.744 34.4634C59.8323 34.4634 59.9186 34.4646 60.0028 34.4669C62.5111 34.5371 63.244 35.6307 63.244 36.5235C63.244 37.4393 61.7008 38.0276 59.7882 38.0365C59.7735 38.0366 59.7588 38.0366 59.744 38.0366C59.7293 38.0366 59.7146 38.0366 59.6999 38.0365ZM63.7525 41.3204C62.4867 41.8459 61.0511 42.0366 59.744 42.0366C58.437 42.0366 57.0014 41.8459 55.7356 41.3204C54.7731 40.9209 52.244 39.5698 52.244 36.5235C52.244 34.8545 52.9925 33.1289 54.5822 31.9421C56.0576 30.8406 57.8965 30.4634 59.744 30.4634C61.5916 30.4634 63.4304 30.8406 64.9059 31.9421C66.4955 33.1289 67.244 34.8545 67.244 36.5235C67.244 39.5698 64.7149 40.9209 63.7525 41.3204Z"/>
<path fill-rule="evenodd" clip-rule="evenodd" d="M60.6236 59.9606H59.0773C56.2713 59.9606 54.0929 62.0601 53.9631 64.6011C53.4639 74.3716 54.0047 82.6169 55.3139 89.0449C56.4406 94.5764 58.0721 98.4465 59.8313 100.834C61.3937 98.347 62.8928 94.5149 64.0004 89.148C65.302 82.8412 66.0032 74.7071 65.7689 64.7776C65.707 62.1551 63.4903 59.9606 60.6236 59.9606ZM59.0773 55.9606C54.2736 55.9606 50.2134 59.5995 49.9683 64.397C48.9456 84.4136 52.144 98.7815 57.918 104.764C58.371 105.233 59.0075 105.463 59.6598 105.463H60.1601C60.9023 105.463 61.6174 105.165 62.0784 104.583C66.9186 98.4745 70.247 84.9874 69.7677 64.6832C69.6517 59.7683 65.5399 55.9606 60.6236 55.9606H59.0773Z"/>
<path fill-rule="evenodd" clip-rule="evenodd" d="M50.3914 66.1602C50.3914 65.0556 51.2868 64.1602 52.3914 64.1602H67.2527C68.3573 64.1602 69.2527 65.0556 69.2527 66.1602C69.2527 67.2647 68.3573 68.1602 67.2527 68.1602H52.3914C51.2868 68.1602 50.3914 67.2647 50.3914 66.1602ZM50.3914 74.2774C50.3914 73.1729 51.2868 72.2774 52.3914 72.2774H67.2527C68.3573 72.2774 69.2527 73.1729 69.2527 74.2774C69.2527 75.382 68.3573 76.2774 67.2527 76.2774H52.3914C51.2868 76.2774 50.3914 75.382 50.3914 74.2774ZM66.4705 84.6954L53.1735 84.6954C52.069 84.6954 51.1735 83.8 51.1735 82.6954C51.1735 81.5908 52.069 80.6954 53.1735 80.6954L66.4705 80.6954C67.5751 80.6954 68.4705 81.5908 68.4705 82.6954C68.4705 83.8 67.5751 84.6954 66.4705 84.6954ZM52.6336 91.1898C52.6336 90.0852 53.5291 89.1898 54.6336 89.1898H64.9046C66.0091 89.1898 66.9046 90.0852 66.9046 91.1898C66.9046 92.2943 66.0091 93.1898 64.9046 93.1898H54.6336C53.5291 93.1898 52.6336 92.2943 52.6336 91.1898Z"/>
<path fill-rule="evenodd" clip-rule="evenodd" d="M78.9442 23.0663C79.77 23.7999 79.8446 25.0641 79.1109 25.8898L76.2683 29.089C75.5346 29.9148 74.2705 29.9894 73.4448 29.2557C72.6191 28.522 72.5445 27.2579 73.2781 26.4322L76.1207 23.2329C76.8544 22.4072 78.1185 22.3326 78.9442 23.0663Z"/>
<path fill-rule="evenodd" clip-rule="evenodd" d="M41.0264 23.0663C40.2007 23.7999 40.126 25.0641 40.8597 25.8898L43.7023 29.089C44.436 29.9148 45.7001 29.9894 46.5258 29.2557C47.3515 28.522 47.4262 27.2579 46.6925 26.4322L43.8499 23.2329C43.1162 22.4072 41.8521 22.3326 41.0264 23.0663Z"/>
<path fill-rule="evenodd" clip-rule="evenodd" d="M59.9853 12.5366C61.0899 12.5366 61.9853 13.4321 61.9853 14.5366V22.2648C61.9853 23.3694 61.0899 24.2648 59.9853 24.2648C58.8807 24.2648 57.9853 23.3694 57.9853 22.2648V14.5366C57.9853 13.4321 58.8807 12.5366 59.9853 12.5366Z"/>
<path fill-rule="evenodd" clip-rule="evenodd" d="M48.7029 17.3425C47.7117 17.83 47.3034 19.0286 47.7909 20.0198L49.8946 24.2975C50.3821 25.2887 51.5808 25.697 52.572 25.2096C53.5632 24.7221 53.9715 23.5234 53.484 22.5322L51.3803 18.2546C50.8928 17.2634 49.6941 16.855 48.7029 17.3425Z"/>
<path fill-rule="evenodd" clip-rule="evenodd" d="M71.2677 17.3425C72.2589 17.83 72.6672 19.0286 72.1798 20.0198L70.076 24.2975C69.5885 25.2887 68.3898 25.697 67.3986 25.2096C66.4075 24.7221 65.9991 23.5234 66.4866 22.5322L68.5904 18.2546C69.0778 17.2634 70.2765 16.855 71.2677 17.3425Z"/>
<path fill-rule="evenodd" clip-rule="evenodd" d="M59.9852 24.4088C54.4277 24.4088 49.6 26.3519 46.5708 29.2145C45.7679 29.9731 44.5021 29.9373 43.7435 29.1345C42.9848 28.3316 43.0206 27.0658 43.8235 26.3072C47.6938 22.6498 53.55 20.4088 59.9852 20.4088C66.42 20.4088 72.2759 22.6495 76.1462 26.3064C76.949 27.065 76.9849 28.3309 76.2263 29.1337C75.4677 29.9366 74.2019 29.9725 73.399 29.2139C70.3698 26.3517 65.5424 24.4088 59.9852 24.4088Z"/>
<path fill-rule="evenodd" clip-rule="evenodd" d="M13.9512 64.6057C12.4417 61.0441 14.1605 56.8139 17.9342 55.2145C18.3604 55.0339 18.792 54.8958 19.2243 54.7978L51.2364 48.9894L50.5223 45.0537L18.4319 50.8762L18.3942 50.8846C17.7129 51.0356 17.0366 51.2505 16.3732 51.5317C10.6564 53.9546 7.85873 60.4814 10.2684 66.1666C12.678 71.8519 19.3136 74.3805 25.0304 71.9575C25.68 71.6822 26.2925 71.3538 26.8644 70.9792L54.0237 54.6249L51.9603 51.1982L24.7313 67.5945L24.6966 67.6174C24.3169 67.8681 23.9074 68.089 23.4695 68.2746C19.6958 69.874 15.4608 68.1673 13.9512 64.6057Z"/>
<path fill-rule="evenodd" clip-rule="evenodd" d="M106.049 64.6057C107.558 61.0441 105.84 56.8139 102.066 55.2145C101.64 55.0339 101.208 54.8958 100.776 54.7978L68.7636 48.9894L69.4777 45.0537L101.568 50.8762L101.606 50.8846C102.287 51.0356 102.963 51.2505 103.627 51.5317C109.344 53.9546 112.141 60.4814 109.732 66.1666C107.322 71.8519 100.686 74.3805 94.9696 71.9575C94.32 71.6822 93.7075 71.3538 93.1356 70.9792L65.9763 54.6249L68.0397 51.1982L95.2687 67.5945L95.3034 67.6174C95.6831 67.8681 96.0926 68.089 96.5305 68.2746C100.304 69.874 104.539 68.1673 106.049 64.6057Z"/>
<path d="M99.2726 103.463C99.2726 104.568 98.3772 105.463 97.2726 105.463C96.168 105.463 95.2726 104.568 95.2726 103.463C95.2726 102.359 96.168 101.463 97.2726 101.463C98.3772 101.463 99.2726 102.359 99.2726 103.463Z"/>
</svg>
