<svg width="120" height="120" viewBox="0 0 120 120" fill="#582900" xmlns="http://www.w3.org/2000/svg">
<path fill-rule="evenodd" clip-rule="evenodd" d="M55.8086 46.7181C59.5106 46.7181 62.5117 43.717 62.5117 40.0149C62.5117 36.3129 59.5106 33.3118 55.8086 33.3118C52.1065 33.3118 49.1054 36.3129 49.1054 40.0149C49.1054 43.717 52.1065 46.7181 55.8086 46.7181ZM55.8086 50.7181C61.7198 50.7181 66.5117 45.9261 66.5117 40.0149C66.5117 34.1037 61.7198 29.3118 55.8086 29.3118C49.8974 29.3118 45.1054 34.1037 45.1054 40.0149C45.1054 45.9261 49.8974 50.7181 55.8086 50.7181Z"/>
<path fill-rule="evenodd" clip-rule="evenodd" d="M55.5517 29.3357C53.6391 29.3268 52.0959 28.7385 52.0959 27.8227C52.0959 26.9299 52.8288 25.8363 55.3371 25.7661C55.4213 25.7638 55.5076 25.7626 55.5959 25.7626C55.6842 25.7626 55.7704 25.7638 55.8547 25.7661C58.363 25.8363 59.0959 26.9299 59.0959 27.8227C59.0959 28.7385 57.5527 29.3268 55.64 29.3357C55.6253 29.3358 55.6106 29.3358 55.5959 29.3358C55.5811 29.3358 55.5664 29.3358 55.5517 29.3357ZM59.6043 32.6196C58.3385 33.1451 56.9029 33.3358 55.5959 33.3358C54.2888 33.3358 52.8532 33.1451 51.5874 32.6196C50.625 32.2201 48.0959 30.869 48.0959 27.8227C48.0959 26.1537 48.8444 24.4281 50.434 23.2413C51.9095 22.1398 53.7483 21.7626 55.5959 21.7626C57.4434 21.7626 59.2823 22.1398 60.7577 23.2413C62.3474 24.4281 63.0959 26.1537 63.0959 27.8227C63.0959 30.869 60.5668 32.2201 59.6043 32.6196Z"/>
<path fill-rule="evenodd" clip-rule="evenodd" d="M56.4469 51.2598H54.9006C52.0946 51.2598 49.9162 53.3593 49.7863 55.9003C49.2872 65.6708 49.828 73.9161 51.1372 80.3441C52.2639 85.8756 53.8953 89.7457 55.6545 92.1337C57.217 89.6462 58.7161 85.8141 59.8237 80.4472C61.1253 74.1404 61.8265 66.0063 61.5921 56.0768C61.5303 53.4543 59.3136 51.2598 56.4469 51.2598ZM54.9006 47.2598C50.0969 47.2598 46.0366 50.8987 45.7916 55.6962C44.7689 75.7128 47.9673 90.0807 53.7413 96.0629C54.1943 96.5323 54.8308 96.7619 55.4831 96.7619H55.9834C56.7256 96.7619 57.4407 96.464 57.9017 95.8823C62.7418 89.7737 66.0702 76.2866 65.591 55.9824C65.475 51.0675 61.3632 47.2598 56.4469 47.2598H54.9006Z"/>
<path fill-rule="evenodd" clip-rule="evenodd" d="M46.2146 57.4594C46.2146 56.3548 47.1101 55.4594 48.2146 55.4594H63.076C64.1806 55.4594 65.076 56.3548 65.076 57.4594C65.076 58.5639 64.1806 59.4594 63.076 59.4594H48.2146C47.1101 59.4594 46.2146 58.5639 46.2146 57.4594ZM46.2146 65.5766C46.2146 64.472 47.1101 63.5766 48.2146 63.5766H63.076C64.1806 63.5766 65.076 64.472 65.076 65.5766C65.076 66.6812 64.1806 67.5766 63.076 67.5766H48.2146C47.1101 67.5766 46.2146 66.6812 46.2146 65.5766ZM62.2938 75.9946L48.9968 75.9946C47.8923 75.9946 46.9968 75.0992 46.9968 73.9946C46.9968 72.89 47.8923 71.9946 48.9968 71.9946L62.2938 71.9946C63.3984 71.9946 64.2938 72.89 64.2938 73.9946C64.2938 75.0992 63.3984 75.9946 62.2938 75.9946ZM48.4569 82.489C48.4569 81.3844 49.3524 80.489 50.4569 80.489H60.7279C61.8324 80.489 62.7279 81.3844 62.7279 82.489C62.7279 83.5935 61.8324 84.489 60.7279 84.489H50.4569C49.3524 84.489 48.4569 83.5935 48.4569 82.489Z"/>
<path fill-rule="evenodd" clip-rule="evenodd" d="M74.5548 14.3655C75.3805 15.0991 75.4551 16.3632 74.7215 17.189L71.8789 20.3882C71.1452 21.2139 69.8811 21.2886 69.0554 20.5549C68.2296 19.8212 68.155 18.5571 68.8887 17.7314L71.7313 14.5321C72.465 13.7064 73.7291 13.6318 74.5548 14.3655Z"/>
<path fill-rule="evenodd" clip-rule="evenodd" d="M36.6369 14.3655C35.8112 15.0991 35.7366 16.3632 36.4703 17.189L39.3129 20.3882C40.0465 21.2139 41.3107 21.2886 42.1364 20.5549C42.9621 19.8212 43.0367 18.5571 42.3031 17.7314L39.4604 14.5321C38.7268 13.7064 37.4626 13.6318 36.6369 14.3655Z"/>
<path fill-rule="evenodd" clip-rule="evenodd" d="M55.5959 3.83582C56.7004 3.83582 57.5959 4.73125 57.5959 5.83582V13.564C57.5959 14.6686 56.7004 15.564 55.5959 15.564C54.4913 15.564 53.5959 14.6686 53.5959 13.564V5.83582C53.5959 4.73125 54.4913 3.83582 55.5959 3.83582Z"/>
<path fill-rule="evenodd" clip-rule="evenodd" d="M44.3135 8.64168C43.3223 9.12915 42.914 10.3278 43.4014 11.319L45.5052 15.5967C45.9927 16.5879 47.1913 16.9962 48.1825 16.5088C49.1737 16.0213 49.5821 14.8226 49.0946 13.8314L46.9908 9.55375C46.5034 8.56256 45.3047 8.15422 44.3135 8.64168Z"/>
<path fill-rule="evenodd" clip-rule="evenodd" d="M66.8783 8.64168C67.8694 9.12915 68.2778 10.3278 67.7903 11.319L65.6865 15.5967C65.1991 16.5879 64.0004 16.9962 63.0092 16.5088C62.018 16.0213 61.6097 14.8226 62.0971 13.8314L64.2009 9.55375C64.6884 8.56256 65.8871 8.15422 66.8783 8.64168Z"/>
<path fill-rule="evenodd" clip-rule="evenodd" d="M55.5958 15.708C50.0382 15.708 45.2106 17.6511 42.1814 20.5137C41.3785 21.2723 40.1127 21.2365 39.3541 20.4337C38.5954 19.6308 38.6312 18.365 39.434 17.6064C43.3043 13.949 49.1606 11.708 55.5958 11.708C62.0306 11.708 67.8865 13.9487 71.7567 17.6056C72.5596 18.3642 72.5955 19.63 71.8369 20.4329C71.0783 21.2358 69.8125 21.2717 69.0096 20.5131C65.9804 17.6509 61.153 15.708 55.5958 15.708Z"/>
<path fill-rule="evenodd" clip-rule="evenodd" d="M9.7745 55.9049C8.26496 52.3433 9.98374 48.1131 13.7574 46.5137C14.1837 46.3331 14.6152 46.195 15.0476 46.097L47.0597 40.2886L46.3456 36.3529L14.2552 42.1754L14.2174 42.1838C13.5362 42.3348 12.8599 42.5497 12.1965 42.8308C6.47969 45.2538 3.682 51.7806 6.09163 57.4658C8.50126 63.1511 15.1369 65.6797 20.8537 63.2567C21.5032 62.9814 22.1158 62.653 22.6876 62.2784L49.847 45.9241L47.7835 42.4974L20.5546 58.8937L20.5198 58.9166C20.1402 59.1673 19.7307 59.3882 19.2928 59.5738C15.5191 61.1732 11.284 59.4665 9.7745 55.9049Z"/>
<path fill-rule="evenodd" clip-rule="evenodd" d="M101.872 55.9049C103.382 52.3433 101.663 48.1131 97.8891 46.5137C97.4629 46.3331 97.0313 46.195 96.599 46.097L64.5869 40.2886L65.301 36.3529L97.3914 42.1754L97.4291 42.1838C98.1104 42.3348 98.7867 42.5497 99.4501 42.8308C105.167 45.2538 107.965 51.7806 105.555 57.4658C103.145 63.1511 96.5097 65.6797 90.7929 63.2567C90.1433 62.9814 89.5308 62.653 88.9589 62.2784L61.7996 45.9241L63.863 42.4974L91.092 58.8937L91.1267 58.9166C91.5064 59.1673 91.9159 59.3882 92.3538 59.5738C96.1275 61.1732 100.363 59.4665 101.872 55.9049Z"/>
<path fill-rule="evenodd" clip-rule="evenodd" d="M98.1167 94.56C100.069 96.5126 103.235 96.5126 105.188 94.56C107.14 92.6073 107.14 89.4415 105.188 87.4889C103.235 85.5363 100.069 85.5363 98.1167 87.4889C96.1641 89.4415 96.1641 92.6073 98.1167 94.56ZM95.2883 97.3884C98.803 100.903 104.502 100.903 108.016 97.3884C111.531 93.8737 111.531 88.1752 108.016 84.6605C104.502 81.1458 98.803 81.1458 95.2883 84.6605C91.7736 88.1752 91.7736 93.8737 95.2883 97.3884Z"/>
<path fill-rule="evenodd" clip-rule="evenodd" d="M82.6651 82.3751C83.0907 81.3233 84.3576 80.7486 85.5562 81.2336C85.6952 81.2899 85.8244 81.3569 85.9434 81.4328L85.9833 81.4582L95.7569 87.0549L97.7446 83.5837L88.0491 78.0317C87.7378 77.8369 87.4062 77.6671 87.0566 77.5256C83.9017 76.249 80.248 77.6847 78.9572 80.8747C77.6663 84.0646 79.2934 87.6372 82.4483 88.9138C82.7955 89.0543 83.1492 89.1623 83.5058 89.2388L94.83 92.2039L95.8432 88.3343L84.4188 85.343L84.3655 85.3321C84.2272 85.3038 84.0878 85.2622 83.9487 85.2059C82.7502 84.7209 82.2395 83.4269 82.6651 82.3751Z"/>
<path fill-rule="evenodd" clip-rule="evenodd" d="M110.302 110.012C111.353 109.586 111.928 108.319 111.443 107.121C111.387 106.981 111.32 106.852 111.244 106.733L111.219 106.693L105.622 96.9198L109.093 94.9321L114.645 104.628C114.84 104.939 115.01 105.27 115.151 105.62C116.428 108.775 114.992 112.429 111.802 113.72C108.612 115.01 105.04 113.383 103.763 110.228C103.622 109.881 103.514 109.527 103.438 109.171L100.473 97.8467L104.342 96.8335L107.334 108.258L107.345 108.311C107.373 108.449 107.415 108.589 107.471 108.728C107.956 109.927 109.25 110.437 110.302 110.012Z"/>
<path fill-rule="evenodd" clip-rule="evenodd" d="M86.4792 109.307C88.0537 108.891 90.8887 107.482 95.5464 102.786C96.8707 101.451 96.948 99.048 95.2861 97.3862C93.6621 95.7622 91.3394 95.8066 90.0202 97.0417C85.1262 101.624 83.7573 104.478 83.3816 106.046C83.0996 107.223 83.2462 107.84 83.5112 108.956C83.5332 109.049 83.5559 109.145 83.5794 109.245C83.5933 109.248 83.6071 109.251 83.6209 109.254C84.7282 109.488 85.3197 109.613 86.4792 109.307ZM98.1145 94.5578C95.1407 91.5839 90.3565 91.2474 87.2864 94.1218C77.8986 102.911 78.9777 107.313 79.6794 110.176C79.7494 110.461 79.8156 110.731 79.8673 110.989C79.9671 111.486 80.1694 111.968 80.5281 112.327C80.8869 112.685 81.3683 112.888 81.8673 112.98C82.0957 113.022 82.3325 113.074 82.5802 113.129C85.3293 113.733 89.4291 114.633 98.3862 105.603C101.425 102.54 101.165 97.6086 98.1145 94.5578Z"/>
<path fill-rule="evenodd" clip-rule="evenodd" d="M110.739 85.6172L110.854 85.4766C111.071 85.2116 111.11 84.8428 110.953 84.5381C110.331 83.3299 109.347 82.3459 108.139 81.7236C107.834 81.5666 107.465 81.6057 107.2 81.8229L107.059 81.9381C106.54 82.364 106.501 83.1453 106.976 83.6204L109.056 85.7004C109.531 86.1755 110.313 86.1369 110.739 85.6172ZM109.97 78.1676C108.248 77.2804 106.163 77.501 104.665 78.7291L104.524 78.8443C102.175 80.7694 102 84.3013 104.148 86.4489L106.228 88.5289C108.375 90.6764 111.907 90.5017 113.832 88.1526L113.948 88.0121C115.176 86.5136 115.396 84.4288 114.509 82.7065C113.505 80.758 111.919 79.1712 109.97 78.1676Z"/>
<path d="M89.6315 95.9742L96.7025 103.045L93.8741 105.874L86.803 98.8026L89.6315 95.9742Z"/>
<path d="M84.6817 100.924L91.7528 107.995L88.9244 110.823L81.8533 103.752L84.6817 100.924Z"/>
</svg>
