<svg width="120" height="120" viewBox="0 0 120 120" fill="#582900" xmlns="http://www.w3.org/2000/svg">
<g clip-path="url(#clip0_919_293)">
<path fill-rule="evenodd" clip-rule="evenodd" d="M101.714 8.03699C102.819 8.03699 103.714 8.93242 103.714 10.037V12.3825H104.811C105.916 12.3825 106.811 13.278 106.811 14.3825C106.811 15.4871 105.916 16.3825 104.811 16.3825H103.714V23.6081L109.971 19.9954L109.423 19.0454C108.871 18.0889 109.198 16.8657 110.155 16.3134C111.112 15.7611 112.335 16.0889 112.887 17.0454L113.435 17.9954L115.467 16.8228C116.423 16.2705 117.646 16.5982 118.199 17.5548C118.751 18.5114 118.423 19.7346 117.467 20.2869L115.435 21.4595L115.984 22.4101C116.537 23.3666 116.209 24.5898 115.252 25.1421C114.296 25.6944 113.072 25.3666 112.52 24.4101L111.971 23.4595L105.714 27.0724L111.971 30.6852L112.52 29.7347C113.072 28.7781 114.296 28.4503 115.252 29.0026C116.209 29.5549 116.536 30.7781 115.984 31.7347L115.435 32.6852L117.467 33.8579C118.423 34.4102 118.751 35.6333 118.199 36.5899C117.646 37.5465 116.423 37.8743 115.467 37.322L113.435 36.1493L112.887 37.0993C112.335 38.0559 111.111 38.3836 110.155 37.8313C109.198 37.2791 108.87 36.0559 109.423 35.0993L109.971 34.1493L103.714 30.5367V37.761H104.811C105.916 37.761 106.811 38.6564 106.811 39.761C106.811 40.8656 105.916 41.761 104.811 41.761H103.714V44.1069C103.714 45.2114 102.819 46.1069 101.714 46.1069C100.61 46.1069 99.7141 45.2114 99.7141 44.1069V41.761H98.6167C97.5122 41.761 96.6167 40.8656 96.6167 39.761C96.6167 38.6564 97.5122 37.761 98.6167 37.761H99.7141L99.7141 30.5363L93.4567 34.149L94.0054 35.0993C94.5577 36.0559 94.2299 37.2791 93.2733 37.8313C92.3168 38.3836 91.0936 38.0559 90.5413 37.0993L89.9926 36.149L87.9612 37.3218C87.0046 37.8741 85.7814 37.5464 85.2291 36.5898C84.6768 35.6332 85.0046 34.41 85.9612 33.8577L87.9926 32.6849L87.444 31.7347C86.8918 30.7781 87.2195 29.5549 88.1761 29.0026C89.1327 28.4503 90.3559 28.7781 90.9081 29.7347L91.4567 30.6849L97.7137 27.0724L91.4567 23.4599L90.9081 24.4101C90.3558 25.3666 89.1326 25.6944 88.176 25.1421C87.2194 24.5898 86.8917 23.3666 87.444 22.4101L87.9926 21.4599L85.9612 20.287C85.0046 19.7348 84.6768 18.5116 85.2291 17.555C85.7814 16.5984 87.0046 16.2707 87.9612 16.8229L89.9926 17.9958L90.5412 17.0454C91.0935 16.0889 92.3167 15.7611 93.2733 16.3134C94.2299 16.8657 94.5576 18.0889 94.0053 19.0454L93.4567 19.9958L99.7141 23.6085L99.7141 16.3825H98.6167C97.5122 16.3825 96.6167 15.4871 96.6167 14.3825C96.6167 13.278 97.5122 12.3825 98.6167 12.3825H99.7141V10.037C99.7141 8.93242 100.61 8.03699 101.714 8.03699Z"/>
<path fill-rule="evenodd" clip-rule="evenodd" d="M52.9567 61.9193C56.6588 61.9193 59.6599 58.9182 59.6599 55.2161C59.6599 51.514 56.6588 48.5129 52.9567 48.5129C49.2547 48.5129 46.2536 51.514 46.2536 55.2161C46.2536 58.9182 49.2547 61.9193 52.9567 61.9193ZM52.9567 65.9193C58.8679 65.9193 63.6599 61.1273 63.6599 55.2161C63.6599 49.3049 58.8679 44.5129 52.9567 44.5129C47.0455 44.5129 42.2536 49.3049 42.2536 55.2161C42.2536 61.1273 47.0455 65.9193 52.9567 65.9193Z"/>
<path fill-rule="evenodd" clip-rule="evenodd" d="M52.6999 44.5369C50.7872 44.528 49.244 43.9396 49.244 43.0239C49.244 42.1311 49.9769 41.0374 52.4853 40.9673C52.5695 40.9649 52.6558 40.9637 52.744 40.9637C52.8323 40.9637 52.9186 40.9649 53.0028 40.9673C55.5112 41.0374 56.244 42.1311 56.244 43.0239C56.244 43.9396 54.7009 44.528 52.7882 44.5369C52.7735 44.537 52.7588 44.537 52.744 44.537C52.7293 44.537 52.7146 44.537 52.6999 44.5369ZM56.7525 47.8208C55.4867 48.3463 54.0511 48.537 52.744 48.537C51.437 48.537 50.0014 48.3463 48.7356 47.8208C47.7732 47.4213 45.244 46.0702 45.244 43.0239C45.244 41.3549 45.9926 39.6293 47.5822 38.4425C49.0577 37.341 50.8965 36.9637 52.744 36.9637C54.5916 36.9637 56.4304 37.341 57.9059 38.4425C59.4955 39.6293 60.244 41.3549 60.244 43.0239C60.244 46.0702 57.7149 47.4213 56.7525 47.8208Z"/>
<path fill-rule="evenodd" clip-rule="evenodd" d="M53.5951 66.4609H52.0488C49.2428 66.4609 47.0643 68.5604 46.9345 71.1014C46.4354 80.872 46.9762 89.1173 48.2854 95.5453C49.412 101.077 51.0435 104.947 52.8027 107.335C54.3652 104.847 55.8643 101.015 56.9719 95.6484C58.2734 89.3416 58.9747 81.2075 58.7403 71.278C58.6784 68.6555 56.4618 66.4609 53.5951 66.4609ZM52.0488 62.4609C47.245 62.4609 43.1848 66.0999 42.9397 70.8974C41.9171 90.914 45.1155 105.282 50.8895 111.264C51.3425 111.733 51.979 111.963 52.6312 111.963H53.1315C53.8738 111.963 54.5889 111.665 55.0499 111.083C59.89 104.975 63.2184 91.4877 62.7392 71.1836C62.6232 66.2687 58.5114 62.4609 53.5951 62.4609H52.0488Z"/>
<path fill-rule="evenodd" clip-rule="evenodd" d="M43.3628 72.6606C43.3628 71.5561 44.2583 70.6606 45.3628 70.6606H60.2242C61.3287 70.6606 62.2242 71.5561 62.2242 72.6606C62.2242 73.7652 61.3287 74.6606 60.2242 74.6606H45.3628C44.2583 74.6606 43.3628 73.7652 43.3628 72.6606ZM43.3628 80.7779C43.3628 79.6733 44.2583 78.7779 45.3628 78.7779H60.2242C61.3287 78.7779 62.2242 79.6733 62.2242 80.7779C62.2242 81.8825 61.3287 82.7779 60.2242 82.7779H45.3628C44.2583 82.7779 43.3628 81.8825 43.3628 80.7779ZM59.442 91.1959L46.145 91.1959C45.0404 91.1959 44.145 90.3005 44.145 89.1959C44.145 88.0913 45.0404 87.1959 46.145 87.1959L59.442 87.1959C60.5466 87.1959 61.442 88.0913 61.442 89.1959C61.442 90.3005 60.5466 91.1959 59.442 91.1959ZM45.6051 97.6903C45.6051 96.5857 46.5005 95.6903 47.6051 95.6903H57.876C58.9806 95.6903 59.876 96.5857 59.876 97.6903C59.876 98.7948 58.9806 99.6903 57.876 99.6903H47.6051C46.5005 99.6903 45.6051 98.7948 45.6051 97.6903Z"/>
<path fill-rule="evenodd" clip-rule="evenodd" d="M71.703 29.3994C72.5287 30.1331 72.6033 31.3972 71.8697 32.2229L69.0271 35.4222C68.2934 36.2479 67.0293 36.3225 66.2035 35.5888C65.3778 34.8552 65.3032 33.591 66.0369 32.7653L68.8795 29.5661C69.6132 28.7403 70.8773 28.6657 71.703 29.3994Z"/>
<path fill-rule="evenodd" clip-rule="evenodd" d="M33.7851 29.3994C32.9594 30.1331 32.8848 31.3972 33.6185 32.2229L36.4611 35.4222C37.1947 36.2479 38.4589 36.3225 39.2846 35.5888C40.1103 34.8552 40.1849 33.591 39.4513 32.7653L36.6086 29.5661C35.875 28.7403 34.6108 28.6657 33.7851 29.3994Z"/>
<path fill-rule="evenodd" clip-rule="evenodd" d="M52.744 18.8698C53.8486 18.8698 54.744 19.7652 54.744 20.8698V28.5979C54.744 29.7025 53.8486 30.5979 52.744 30.5979C51.6395 30.5979 50.744 29.7025 50.744 28.5979V20.8698C50.744 19.7652 51.6395 18.8698 52.744 18.8698Z"/>
<path fill-rule="evenodd" clip-rule="evenodd" d="M41.4617 23.6756C40.4705 24.1631 40.0622 25.3618 40.5496 26.353L42.6534 30.6306C43.1409 31.6218 44.3395 32.0302 45.3307 31.5427C46.3219 31.0552 46.7303 29.8565 46.2428 28.8654L44.139 24.5877C43.6516 23.5965 42.4529 23.1882 41.4617 23.6756Z"/>
<path fill-rule="evenodd" clip-rule="evenodd" d="M64.0264 23.6756C65.0176 24.1631 65.426 25.3618 64.9385 26.353L62.8347 30.6306C62.3473 31.6218 61.1486 32.0302 60.1574 31.5427C59.1662 31.0552 58.7579 29.8565 59.2453 28.8654L61.3491 24.5877C61.8366 23.5965 63.0353 23.1882 64.0264 23.6756Z"/>
<path fill-rule="evenodd" clip-rule="evenodd" d="M52.744 30.7419C47.1864 30.7419 42.3587 32.6851 39.3295 35.5476C38.5267 36.3062 37.2609 36.2704 36.5022 35.4676C35.7436 34.6648 35.7794 33.399 36.5822 32.6403C40.4525 28.983 46.3088 26.7419 52.744 26.7419C59.1788 26.7419 65.0346 28.9827 68.9049 32.6396C69.7078 33.3982 69.7437 34.664 68.9851 35.4669C68.2265 36.2697 66.9607 36.3056 66.1578 35.547C63.1285 32.6848 58.3011 30.7419 52.744 30.7419Z"/>
<path fill-rule="evenodd" clip-rule="evenodd" d="M6.92269 71.1061C5.41316 67.5445 7.13193 63.3143 10.9056 61.7149C11.3319 61.5342 11.7634 61.3961 12.1957 61.2981L44.2079 55.4898L43.4938 51.5541L11.4034 57.3766L11.3656 57.385C10.6844 57.536 10.008 57.7509 9.34469 58.032C3.62788 60.455 0.830198 66.9817 3.23983 72.667C5.64946 78.3523 12.2851 80.8808 18.0019 78.4578C18.6514 78.1825 19.264 77.8541 19.8358 77.4796L46.9952 61.1253L44.9317 57.6986L17.7028 74.0948L17.668 74.1178C17.2884 74.3685 16.8789 74.5894 16.441 74.775C12.6673 76.3744 8.43223 74.6677 6.92269 71.1061Z"/>
<path fill-rule="evenodd" clip-rule="evenodd" d="M99.0203 71.1061C100.53 67.5445 98.811 63.3143 95.0373 61.7149C94.6111 61.5342 94.1795 61.3961 93.7472 61.2981L61.7351 55.4898L62.4492 51.5541L94.5396 57.3766L94.5773 57.385C95.2586 57.536 95.9349 57.7509 96.5983 58.032C102.315 60.455 105.113 66.9817 102.703 72.667C100.294 78.3523 93.6579 80.8808 87.9411 78.4578C87.2915 78.1825 86.679 77.8541 86.1071 77.4796L58.9478 61.1253L61.0112 57.6986L88.2402 74.0948L88.2749 74.1178C88.6546 74.3685 89.0641 74.5894 89.502 74.775C93.2757 76.3744 97.5107 74.6677 99.0203 71.1061Z"/>
</g>
<defs>
<clipPath id="clip0_919_293">
<rect width="120" height="120" fill="white"/>
</clipPath>
</defs>
</svg>
