<svg width="118" height="47" viewBox="0 0 118 47" fill="none" xmlns="http://www.w3.org/2000/svg">
<path d="M35.5559 45.9998H32.5479V30.3518H35.2679L35.5879 32.7518C36.5799 30.9598 38.5639 29.9038 40.7719 29.9038C44.8999 29.9038 46.7879 32.4318 46.7879 36.4318V45.9998H43.7799V37.1038C43.7799 33.9358 42.3079 32.6558 40.0039 32.6558C37.1879 32.6558 35.5559 34.6718 35.5559 37.7118V45.9998Z" fill="#3D594B"/>
<path d="M26.1677 30.3521H29.1437V46.0001H26.4557L26.1357 43.6321C25.2397 45.2641 23.1597 46.3841 20.8557 46.3841C17.2077 46.3841 15.1597 43.9201 15.1597 40.0801V30.3521H18.1677V39.0881C18.1677 42.4481 19.6077 43.7281 21.9117 43.7281C24.6637 43.7281 26.1677 41.9681 26.1677 38.6081V30.3521Z" fill="#3D594B"/>
<path d="M0.687988 41.4558H3.56799C3.56799 43.0558 4.78399 44.0158 6.76799 44.0158C8.87999 44.0158 10.096 43.1518 10.096 41.7118C10.096 40.6558 9.58399 40.0158 7.95199 39.5998L5.19999 38.9598C2.41599 38.2878 1.10399 36.9118 1.10399 34.6078C1.10399 31.7278 3.53599 29.9038 6.99199 29.9038C10.416 29.9038 12.656 31.8238 12.72 34.7998H9.83999C9.77599 33.2318 8.71999 32.2398 6.89599 32.2398C5.00799 32.2398 3.95199 33.0718 3.95199 34.5118C3.95199 35.5678 4.71999 36.2718 6.25599 36.6558L9.00799 37.3278C11.664 37.9678 12.976 39.1838 12.976 41.5198C12.976 44.4958 10.416 46.3838 6.70399 46.3838C3.02399 46.3838 0.687988 44.4318 0.687988 41.4558Z" fill="#3D594B"/>
<path d="M106.694 23.9998H103.686V8.35181H106.406L106.726 10.7518C107.718 8.95981 109.702 7.90381 111.91 7.90381C116.038 7.90381 117.926 10.4318 117.926 14.4318V23.9998H114.918V15.1038C114.918 11.9358 113.446 10.6558 111.142 10.6558C108.326 10.6558 106.694 12.6718 106.694 15.7118V23.9998Z" fill="#3D594B"/>
<path d="M101.824 8.22423V10.9762H100.48C97.6323 10.9762 95.8723 12.7042 95.8723 15.7122V24.0002H92.8643V8.38423H95.6803L95.8723 10.7522C96.5123 9.12023 98.0803 8.03223 100.224 8.03223C100.768 8.03223 101.216 8.09623 101.824 8.22423Z" fill="#3D594B"/>
<path d="M83.2325 24.3838C78.6245 24.3838 75.4565 21.0558 75.4565 16.1918C75.4565 11.2958 78.5605 7.90381 83.1045 7.90381C87.5525 7.90381 90.4645 10.9758 90.4645 15.6158V16.7358L78.3685 16.7678C78.5925 20.0638 80.3205 21.8878 83.2965 21.8878C85.6325 21.8878 87.1685 20.9278 87.6805 19.1358H90.4965C89.7285 22.4958 87.1045 24.3838 83.2325 24.3838ZM83.1045 10.4318C80.4805 10.4318 78.8165 11.9998 78.4325 14.7518H87.4565C87.4565 12.1598 85.7605 10.4318 83.1045 10.4318Z" fill="#3D594B"/>
<path d="M62.0422 23.9682H59.0342V0.448242H62.0422V10.7522C63.0342 9.05624 64.9222 7.90424 67.3542 7.90424C71.3542 7.90424 73.2742 10.4322 73.2742 14.4322V24.0002H70.2662V15.1042C70.2662 11.9362 68.7622 10.6562 66.5222 10.6562C63.6102 10.6562 62.0422 12.7682 62.0422 15.4562V23.9682Z" fill="#3D594B"/>
<path d="M54.2226 24.0001H51.2146V10.8801H48.1426V8.35205H51.2146V3.45605H54.2226V8.35205H57.2946V10.8801H54.2226V24.0001Z" fill="#3D594B"/>
<path d="M43.4265 8.35205H46.4025V24.0001H43.7145L43.3945 21.6321C42.4985 23.2641 40.4185 24.3841 38.1145 24.3841C34.4665 24.3841 32.4185 21.9201 32.4185 18.0801V8.35205H35.4265V17.0881C35.4265 20.4481 36.8665 21.7281 39.1705 21.7281C41.9225 21.7281 43.4265 19.9681 43.4265 16.6081V8.35205Z" fill="#3D594B"/>
<path d="M14.3276 16.16C14.3276 11.328 17.7836 7.93604 22.4876 7.93604C27.1596 7.93604 30.6156 11.328 30.6156 16.16C30.6156 20.992 27.1596 24.384 22.4876 24.384C17.7836 24.384 14.3276 20.992 14.3276 16.16ZM17.3676 16.16C17.3676 19.424 19.4476 21.696 22.4876 21.696C25.4956 21.696 27.6076 19.424 27.6076 16.16C27.6076 12.896 25.4956 10.624 22.4876 10.624C19.4476 10.624 17.3676 12.896 17.3676 16.16Z" fill="#3D594B"/>
<path d="M0.687988 19.4558H3.56799C3.56799 21.0558 4.78399 22.0158 6.76799 22.0158C8.87999 22.0158 10.096 21.1518 10.096 19.7118C10.096 18.6558 9.58399 18.0158 7.95199 17.5998L5.19999 16.9598C2.41599 16.2878 1.10399 14.9118 1.10399 12.6078C1.10399 9.72781 3.53599 7.90381 6.99199 7.90381C10.416 7.90381 12.656 9.82381 12.72 12.7998H9.83999C9.77599 11.2318 8.71999 10.2398 6.89599 10.2398C5.00799 10.2398 3.95199 11.0718 3.95199 12.5118C3.95199 13.5678 4.71999 14.2718 6.25599 14.6558L9.00799 15.3278C11.664 15.9678 12.976 17.1838 12.976 19.5198C12.976 22.4958 10.416 24.3838 6.70399 24.3838C3.02399 24.3838 0.687988 22.4318 0.687988 19.4558Z" fill="#3D594B"/>
</svg>
