<svg xmlns="http://www.w3.org/2000/svg" xmlns:xlink="http://www.w3.org/1999/xlink" version="1.1" x="0" y="0" viewBox="0 0 62 136">
<path fill-rule="evenodd" clip-rule="evenodd" d="M5.29695 22.1375C5.65156 22.2034 6.01778 22.1229 6.31264 21.9151C6.66866 21.665 7.0204 21.433 7.41005 21.1759C7.59487 21.054 7.78823 20.9264 7.99462 20.7886C9.91448 19.5075 11.947 18.3828 14.0755 17.4338C16.1757 16.4968 18.3692 15.7299 20.6378 15.1525C22.7353 14.6189 24.8968 14.2456 27.1086 14.0479C28.3294 13.939 29.5666 13.8832 30.8166 13.8832C32.0658 13.8832 33.303 13.939 34.5247 14.0479C36.7356 14.2456 38.898 14.6189 40.9955 15.1525C43.2631 15.7299 45.4566 16.4968 47.5568 17.4338C49.6854 18.3828 51.7187 19.5075 53.6378 20.7886C54.2701 21.2115 54.8905 21.6498 55.4973 22.1065C55.8203 22.3498 56.2303 22.4478 56.6292 22.3782C57.0282 22.3087 57.3805 22.0771 57.602 21.7376C58.053 21.0488 58.6332 20.1625 59.2292 19.2521C59.6974 18.5368 60.1754 17.8067 60.6082 17.1456C60.7867 16.8729 60.7537 16.5132 60.5304 16.2771C60.3062 16.0401 59.9493 15.9888 59.6674 16.1518C59.5098 16.2428 59.3491 16.3357 59.1866 16.4296C58.2137 16.9919 57.1748 17.5922 56.3429 18.0689C55.3783 18.6263 54.1776 18.5667 53.2717 17.9188C51.8377 16.9039 50.3241 15.9833 48.7392 15.1698C48.083 14.8358 47.7097 14.1239 47.8085 13.3936C48.0071 11.9176 48.3447 9.41283 48.5937 7.57256C48.6358 7.25869 48.4683 6.95304 48.1809 6.81943C47.8936 6.68582 47.5532 6.75446 47.3399 6.98964C46.0917 8.36597 44.3795 10.2539 43.3034 11.4381C42.6912 12.1134 41.7523 12.3907 40.8719 12.1563C39.6813 11.8443 38.4679 11.5863 37.2334 11.3858C36.6358 11.288 36.0337 11.2047 35.427 11.1351C34.6052 11.0399 33.9353 10.4332 33.7587 9.62517C33.3249 7.63938 32.5014 3.86911 31.8361 0.820862C31.7308 0.341346 31.3071 0 30.8166 0C30.3262 0 29.9015 0.341346 29.7972 0.820862L29.723 1.16075C29.1248 3.90006 28.419 7.13212 27.9798 9.12278C27.7391 10.2255 26.8286 11.0564 25.7084 11.1946C23.9835 11.4169 22.2951 11.7492 20.6534 12.1875C19.8408 12.4071 18.9723 12.1591 18.3976 11.5423C17.283 10.3453 15.4098 8.33303 14.0444 6.8661C13.8211 6.62725 13.4679 6.56229 13.1751 6.70779C12.8822 6.85238 12.7193 7.17175 12.7743 7.49387C12.8514 7.94642 12.9349 8.4361 13.0207 8.93954C13.333 10.7715 13.6763 12.7857 13.8587 13.8566C13.9364 14.3096 13.7068 14.7598 13.295 14.964C11.289 15.9669 9.39204 17.1364 7.62491 18.4542C7.18291 18.7855 6.58599 18.8202 6.10948 18.5411C5.58926 18.2365 4.86486 17.8121 4.09681 17.3621C3.43435 16.974 2.73941 16.5669 2.11501 16.2012C1.89126 16.0703 1.60657 16.1106 1.42876 16.3001C1.25086 16.4885 1.22689 16.775 1.37102 16.9909C2.34141 18.4433 3.61799 20.353 4.42897 21.5647C4.62938 21.8648 4.94235 22.0716 5.29695 22.1375ZM11.1238 61.3949H13.3802C14.0343 61.3949 14.5574 61.9187 14.5574 62.5734V63.5554C14.5574 64.4393 13.8381 65.1268 12.9878 65.1268H11.3526C10.2735 65.1268 9.35783 64.2429 9.35783 63.13C9.39055 62.1805 10.1754 61.3949 11.1238 61.3949ZM0.0377611 39.7892C1.41124 39.8874 2.68663 40.6404 3.40607 41.8189C7.85355 49.1844 9.97924 55.7643 10.6333 58.0231C10.8295 58.6778 10.6986 59.398 10.2735 59.9218C10.2507 59.9674 10.2121 59.9971 10.1797 60.022L10.1796 60.0221C10.1655 60.0329 10.1527 60.0428 10.1427 60.0527C9.94652 60.2165 9.65212 60.1509 9.52134 59.9218C8.90002 58.5469 5.49901 51.0832 4.15822 48.3005C2.75203 45.3543 0.299375 40.313 0.0377611 39.822C-0.0276428 39.7892 0.00505867 39.7892 0.0377611 39.7892ZM17.9912 25.6145C17.9912 25.6145 21.4903 26.1384 23.8776 28.5281C25.5454 30.1976 26.1994 32.6856 25.5126 34.9444C25.5126 34.9607 25.5045 34.9771 25.4963 34.9934C25.4881 35.0098 25.48 35.0261 25.48 35.0425C25.3165 35.5663 24.6298 35.6645 24.27 35.239C24.0083 34.9444 23.7468 34.4532 23.5505 33.7658C23.477 33.4989 23.4235 33.234 23.3702 32.9701L23.37 32.9692C23.0443 31.3559 22.7263 29.7811 17.8931 28.037C17.1409 27.7752 16.6504 27.0223 16.7812 26.2365C16.8794 25.8437 17.3372 25.4837 17.9912 25.6145ZM12.2683 126.932H9.25977C7.98437 126.932 8.5403 126.376 8.5403 126.376C8.5403 126.376 10.1427 124.641 10.5351 124.248C10.9276 123.855 11.4181 123.92 11.4181 123.92H14.3613C14.4594 123.92 14.5574 124.019 14.5574 124.117C14.5574 124.968 14.2304 125.753 13.6418 126.343C13.3148 126.736 12.7916 126.932 12.2683 126.932ZM50.8568 61.3949H48.6004C47.9463 61.3949 47.4231 61.9187 47.4231 62.5734V63.5554C47.4231 64.4393 48.1425 65.1268 48.9927 65.1268H50.6279C51.707 65.1268 52.6227 64.2429 52.6227 63.13C52.6227 62.1805 51.8378 61.3949 50.8568 61.3949ZM61.9755 39.7892C60.602 39.8874 59.3266 40.6404 58.6072 41.8189C54.1597 49.1844 52.034 55.7643 51.38 58.0231C51.1838 58.6778 51.3146 59.398 51.7397 59.9218C51.7626 59.9675 51.8013 59.9972 51.8337 60.0221C51.8477 60.0329 51.8606 60.0428 51.8705 60.0527C52.0668 60.2165 52.3611 60.1509 52.4918 59.9218C53.1133 58.5469 56.5143 51.0832 57.8551 48.3005C59.2612 45.3543 61.7139 40.313 61.9755 39.822C61.9934 39.8041 62.0015 39.796 61.9998 39.7923C61.9984 39.7892 61.9903 39.7892 61.9755 39.7892ZM44.0221 25.6145C44.0221 25.6145 40.5229 26.1384 38.1357 28.5281C36.4679 30.1976 35.8138 32.6856 36.5005 34.9444C36.5005 34.9607 36.5088 34.9771 36.517 34.9934C36.5251 35.0098 36.5333 35.0261 36.5333 35.0425C36.6968 35.5663 37.3835 35.6645 37.7433 35.239C38.0048 34.9444 38.2665 34.4532 38.4627 33.7658C38.5363 33.4989 38.5898 33.234 38.6431 32.9701L38.6433 32.9692C38.969 31.3559 39.287 29.7811 44.1201 28.037C44.8723 27.7752 45.3629 27.0223 45.2321 26.2365C45.1339 25.8437 44.6434 25.4837 44.0221 25.6145ZM49.7122 126.932H52.7208C53.9962 126.932 53.4403 126.376 53.4403 126.376C53.4403 126.376 51.8378 124.641 51.4455 124.248C51.053 123.855 50.5625 123.92 50.5625 123.92H47.6192C47.5212 123.92 47.4231 124.019 47.4231 124.117C47.4231 124.968 47.7501 125.753 48.3387 126.343C48.5134 126.533 48.7261 126.683 48.9627 126.784C49.1994 126.886 49.4548 126.936 49.7122 126.932ZM60.7001 107.585C60.7001 84.1792 38.0048 50.6249 38.0048 50.6249C38.0048 50.6249 38.1356 49.6755 39.2803 49.6755C40.4575 49.6755 43.7277 48.7261 43.7277 45.4198C43.7277 42.9319 43.5642 41.5243 41.5367 40.2475C40.1632 39.3637 38.5281 38.9381 36.893 38.9381H25.1856C23.5505 38.9381 21.9155 39.3637 20.542 40.2475C18.5144 41.557 18.3509 42.9319 18.3509 45.4198C18.3509 48.7589 21.6211 49.6755 22.7984 49.6755C23.9756 49.6755 24.0738 50.6249 24.0738 50.6249C24.0738 50.6249 1.37852 84.1792 1.37852 107.585C1.37852 107.585 1.31312 118.879 5.56439 121.76C9.9138 124.707 14.3286 121.498 15.5385 120.483C15.9964 120.091 16.5523 119.828 17.1082 119.763C18.1874 119.632 19.659 120.124 20.2476 123.266C21.3922 129.027 25.0876 135.967 31.0066 136C36.893 136 40.6211 129.027 41.7329 123.266C42.3542 120.124 43.8259 119.665 44.8722 119.763C45.4609 119.828 46.0169 120.091 46.442 120.483C47.652 121.498 52.0995 124.674 56.4161 121.76C60.7655 118.879 60.7001 107.585 60.7001 107.585ZM23.4851 47.2203C23.0523 46.9268 22.6978 46.5318 22.4527 46.0695C22.2076 45.6073 22.0793 45.092 22.079 44.5687C22.079 43.0301 23.3216 41.8189 24.8259 41.8189H37.1873C38.7243 41.8189 39.9343 43.0629 39.9343 44.5687C39.9347 44.9929 39.851 45.4129 39.6881 45.8045C39.5251 46.196 39.2862 46.5514 38.9851 46.8498C38.6839 47.1483 38.3265 47.3838 37.9338 47.5429C37.5409 47.7021 37.1205 47.7816 36.6968 47.7768H25.2511C24.6624 47.7768 24.0083 47.5804 23.4851 47.2203ZM35.2578 130.598C34.473 131.253 33.59 131.777 32.609 132.071C32.282 132.169 31.9877 132.236 31.6934 132.269C31.399 132.301 31.0393 132.301 31.0393 132.301C31.0393 132.301 30.7122 132.301 30.3852 132.269C30.0909 132.236 29.7639 132.169 29.4696 132.071C28.4886 131.777 27.6056 131.253 26.8207 130.598C23.6486 127.882 23.5833 124.477 23.5833 123.757C23.5833 122.938 24.4335 123.462 24.4335 123.462C24.4335 123.462 25.4146 124.215 27.2132 125.295C29.0445 126.376 30.1564 126.343 30.1564 126.343L31.0066 126.409H31.0393L31.8895 126.343C31.8895 126.343 33.0342 126.343 34.8328 125.295C36.6641 124.215 37.6124 123.462 37.6124 123.462C37.6124 123.462 38.4626 122.938 38.4626 123.757C38.4954 124.477 38.43 127.882 35.2578 130.598ZM37.8413 77.5337C37.8413 80.1526 36.337 82.2804 31.0393 82.2804C25.7743 82.2804 24.27 80.1526 24.27 77.5337C24.27 74.9149 27.3113 72.787 31.0393 72.787C34.8 72.7543 37.8413 74.8822 37.8413 77.5337ZM37.7759 69.1533C37.7759 68.5314 38.2991 68.0076 38.9205 68.0076C39.5418 68.0076 40.0651 68.5314 40.0651 69.1533C40.0651 69.7753 39.5418 70.2991 38.9205 70.2991C38.2991 70.2991 37.7759 69.808 37.7759 69.1533ZM23.1908 70.3319C22.5695 70.3319 22.0463 69.808 22.0463 69.186C22.0463 68.5641 22.5695 68.0403 23.1908 68.0403C23.8121 68.0403 24.3354 68.5641 24.3354 69.186C24.3354 69.808 23.8121 70.3319 23.1908 70.3319ZM23.4851 87.5182C23.8121 85.1285 26.134 86.1105 26.9516 86.6998C27.8345 87.3545 29.3715 87.5182 29.3715 87.5182H32.6417C32.6417 87.5182 34.2114 87.3545 35.0943 86.6998C35.912 86.0778 38.2338 85.1285 38.5608 87.5182C38.8551 89.6133 36.6641 92.0357 35.1598 92.0357H31.0393H26.9189C25.4146 92.003 23.1908 89.6133 23.4851 87.5182ZM34.3422 97.1098C34.3422 97.8628 33.9498 101.955 31.2682 104.639C31.2682 104.639 31.2029 104.704 31.0393 104.704C30.8758 104.704 30.8104 104.639 30.8104 104.639C28.1289 101.955 27.7364 97.8628 27.7364 97.1098C27.7364 96.3569 28.3577 96.4879 28.3577 96.4879H33.7535C33.7209 96.4879 34.3422 96.3569 34.3422 97.1098ZM30.745 108.404C30.9085 108.371 31.0393 108.371 31.0393 108.371C31.0393 108.371 31.1701 108.371 31.3337 108.404C31.7915 108.469 32.9033 108.764 35.4868 111.743L37.3181 113.772C37.3181 113.772 37.7759 114.395 37.7759 114.918C37.7759 115.639 37.5143 116.555 35.7157 116.784L32.609 117.243C31.5666 117.373 30.512 117.373 29.4696 117.243L26.3302 116.784C24.4989 116.522 24.2373 115.639 24.27 114.918C24.27 114.395 24.7278 113.772 24.7278 113.772L26.5591 111.743C29.208 108.796 30.3199 108.469 30.745 108.404ZM24.7932 118.028C25.2838 118.028 25.7416 118.126 26.1667 118.322C26.6572 118.52 27.5074 118.716 27.998 118.814C28.0118 118.815 28.0256 118.817 28.0393 118.819C28.0516 118.821 28.0639 118.822 28.0761 118.824C28.3061 118.853 28.5149 118.879 28.7502 118.879L31.0393 118.945L33.3285 118.879C33.5637 118.879 33.7726 118.853 34.0025 118.824C34.0148 118.822 34.0272 118.821 34.0396 118.819C34.0532 118.817 34.0668 118.815 34.0806 118.814C34.5712 118.716 35.4213 118.52 35.912 118.322C36.337 118.159 36.7948 118.061 37.2854 118.028C38.0376 118.028 38.5935 118.749 38.4954 119.468C38.3646 120.451 37.776 121.891 35.683 122.709C33.8844 123.43 31.8242 124.117 31.0393 124.117C30.2544 124.117 28.1942 123.43 26.3956 122.709C24.3026 121.891 23.7468 120.451 23.5833 119.468C23.4851 118.716 24.0411 118.028 24.7932 118.028ZM55.2061 116.489C50.2681 121.17 40.8826 114.362 38.6916 111.187C37.1219 108.895 35.1598 105.163 38.6916 96.7497C41.1116 90.9882 43.9566 79.9562 43.368 72.8197C42.8121 66.0107 41.1769 62.6062 39.1168 62.1151C37.0856 61.631 36.1034 62.4514 35.7 62.7884L35.6999 62.7884L35.683 62.8026C35.608 62.8709 35.5017 62.9847 35.37 63.1257C34.8704 63.6607 34.0054 64.5868 33.0995 64.8977C32.4128 65.1269 31.0393 65.0613 31.0393 65.0613C31.0393 65.0613 29.6659 65.1269 28.9791 64.8977C28.0732 64.5868 27.2082 63.6607 26.7086 63.1257C26.5769 62.9847 26.4707 62.8709 26.3956 62.8026L26.3703 62.7818C25.9897 62.4689 24.9758 61.6352 22.9619 62.1151C20.9017 62.6062 19.2665 66.0107 18.7107 72.8197C18.122 79.9562 20.9671 90.9882 23.387 96.7497C26.9189 105.163 24.9568 108.862 23.387 111.187C21.196 114.362 11.8104 121.17 6.90518 116.489C2.08874 111.927 6.02727 97.5768 7.79267 91.1446L7.85354 90.9227C9.58678 84.5719 16.8793 68.1386 20.6073 61.3295C24.3354 54.5204 31.072 52.3598 31.072 52.3598C31.072 52.3598 37.8086 54.5204 41.5367 61.3295C45.2647 68.1386 52.5246 84.6047 54.2905 90.9227L54.4316 91.449C56.203 98.0464 59.9485 111.997 55.2061 116.489Z" fill="black"/>
</svg>